<svg width="77" height="44" viewBox="0 0 77 44" fill="none" xmlns="http://www.w3.org/2000/svg">
    <g clip-path="url(#clip0)">
        <path d="M64.5 10.8C64.5 10.8 64.2999 9.09999 64 8.79999C63.7 8.49999 59.4 4.09999 53.2 1.99999C47.5 -1.21593e-05 39.9 -0.900012 32.2 1.19999C24.6 3.19999 20.5 6.09999 20 7.19999C19.8 7.79999 16.7 18.4 16.7 18.4L64.5 10.8Z" fill="#DB6A61"/>
        <path d="M12.3 37.8C12.3 37.8 12.6 34.7 13.2 30.7C14 25.6 16.1 18.9 18.4 15.2C22.9 7.9 31.5 2.9 39.1 1.9C46.8 0.899999 56.2001 2.5 63.8 10.1C71.8 18.1 74.3001 35.9 74.3001 38.3L12.3 37.8Z" fill="#FF7B69"/>
        <path d="M13.2 30.6C11.9 34.5 9.80005 36 0.400047 41.4C-0.399953 41.8 4.64916e-05 42.8 2.70005 43.1C5.30005 43.4 11.7 43.8 25.2 41.1C31.3 41.7 46.6 42.1 55.8 41.9C63.3 41.7 76.4 40.1 77.1 39.5C77.1 39.5 75 37.7 74.1 35.6C74.1 35.6 66.4 36.8 56.5 37.1C48.4 37.4 23.7 36.5 19.4 36.2C14.5 35.9 13.2 30.6 13.2 30.6Z" fill="#DB6A61"/>
        <path d="M50.7 30.6C50.7 29.9 50.1 29.3 49.4 29.3H38.9C38.2 29.3 37.6 29.9 37.6 30.6V37.5H50.6V30.6H50.7Z" fill="#DB6A61"/>
        <path d="M19.9 18.5C19.3 18.1 28.3 5.39999 42.7 5.39999C57.4 5.39999 63.3 13.1 63.3 14C63.3 14.9 55.7 8.59999 43.3 8.59999C30.9 8.59999 21.3 19.5 19.9 18.5Z" fill="white"/>
    </g>
    <defs>
        <clipPath id="clip0">
            <rect width="77" height="43.3" fill="white"/>
        </clipPath>
    </defs>
</svg>
