<svg width="70" height="82" viewBox="0 0 70 82" fill="none" xmlns="http://www.w3.org/2000/svg">
    <g clip-path="url(#clip0)">
        <path d="M39.7999 48.5C37.5999 48.5 16.4999 48.2 9.09995 35.4C1.89995 22.7 7.59995 11.8 7.59995 11.7L8.39995 12.1C8.39995 12.2 2.99995 22.7 9.99995 34.9C17.2999 47.6 39.7999 47.5 39.9999 47.5V48.4C39.9999 48.5 39.8999 48.5 39.7999 48.5Z" fill="white"/>
        <path d="M28.6 18.9C23.5001 18.9 18 14.6 17.8 14.4L18.4 13.7C18.5 13.8 25.6001 19.4 30.7001 17.7C35.8001 16 39.3001 6.60001 39.4001 6.50001C39.4001 6.50001 41.4001 0.100006 49.2001 0.100006C55.5 0.100006 59.9001 7.30001 61 10C62.2001 12.8 64.8 14.9 67.1 14.9V15.8C64.4 15.8 61.5 13.5 60.1 10.3C59 7.70001 54.9 0.900006 49.1 0.900006C42 0.900006 40.3001 6.60001 40.2001 6.70001C40 7.10001 36.5 16.7 30.9 18.5C30.2 18.8 29.4001 18.9 28.6 18.9Z" fill="#54595E"/>
        <path d="M54.2339 17.3187L57.8401 13.7125L54.941 10.8134L51.3348 14.4196L54.2339 17.3187Z" fill="#DB6A61"/>
        <path d="M39.9 52.5C38.6 53 36.7 53.5 34.7999 52.5C31.5 50.8 27.6 43.1 26.4 41.3C25.1999 39.5 12.4 25 11.3 23.6C10.2 22.2 5.09995 19.6 3.99995 15.3C3.39995 12.8 4.39995 11.4 4.99995 10.8C4.99995 10.8 6.69995 8.79999 9.89995 10.1C14 11.7 15.8 17 17.1 18.3C18.4 19.6 31.1 34.2 32.7 35.6C34.3 37 41.4 41.8 42.7 45.4C43.5 47.6 42.6 49.6 41.9 50.8C41.7 51.1 40.4 52.2 39.9 52.5Z" fill="#DB6A61"/>
        <path d="M19.7803 15.6069H25.0803V3.3069H19.7803V15.6069Z" fill="#FF7B69"/>
        <path d="M18.392 64.9834H37.592V61.4834H18.392V64.9834Z" fill="#54595E"/>
        <path d="M24.2 57.6H39.8L44.4 49C46.1 45.8 43.8 42 40.2 42H24.2C19.9 42 16.4 45.5 16.4 49.8C16.3 54.1 19.8 57.6 24.2 57.6Z" fill="#FF7B69"/>
        <path d="M39.6999 57.6L37.6999 61.5H18.4999C17.9999 61.5 17.5999 61.1 17.5999 60.7L17.4999 59.7C17.3999 58.6 18.1999 57.7 19.2999 57.7H39.6999V57.6Z" fill="#DB6A61"/>
        <path d="M25.0301 12.7068L44.8301 12.7068V6.10679L25.0301 6.10679V12.7068Z" fill="#DB6A61"/>
        <path d="M51.8 14.3L34.8 13.9V5.00001L51.8 4.60001V14.3Z" fill="#FF7B69"/>
        <path d="M50.8358 16.0342L56.9875 9.88245L51.755 4.64991L45.6032 10.8017L50.8358 16.0342Z" fill="#FF7B69"/>
        <path d="M57.2816 19.3648L61.1707 15.4758L58.6251 12.9302L54.736 16.8193L57.2816 19.3648Z" fill="#FF7B69"/>
        <path d="M68.8901 22.6229V7.7229H66.6901V22.6229H68.8901Z" fill="#54595E"/>
        <path d="M68.2 25.5L68.9 22.6H66.7L67.6 25.5H68.2Z" fill="#54595E"/>
        <path d="M8.3 4H19C21.9 4 24.3 6.4 24.3 9.3C24.3 10.9 23.6 12.4 22.4 13.3C22 13.6 21.6 13.9 21.1 14.1L13.7 18.6C12.2 19.9 10.3 20.7 8.2 20.7C3.7 20.7 0 17 0 12.3C0 7.6 3.7 4 8.3 4Z" fill="#FF7B69"/>
        <path d="M69.8 17.8C69.8 17.4 69.5 17 69 17H64.2V18.6H69C69.5 18.5 69.8 18.2 69.8 17.8Z" fill="#54595E"/>
        <path d="M58.8999 17.5L61.0999 15.3L63.4999 15.7C63.5999 15.7 63.5999 15.7 63.6999 15.7C63.9999 15.8 64.2999 15.9 64.4999 16.2C65.1999 16.9 65.1999 18 64.4999 18.7C63.7999 19.4 62.6999 19.4 61.9999 18.7L60.6999 19.2C60.1999 19.7 59.3999 19.7 58.8999 19.2C58.3999 18.8 58.3999 18 58.8999 17.5Z" fill="#54595E"/>
        <path d="M39.6999 49.5C40.9702 49.5 41.9999 48.4702 41.9999 47.2C41.9999 45.9297 40.9702 44.9 39.6999 44.9C38.4296 44.9 37.3999 45.9297 37.3999 47.2C37.3999 48.4702 38.4296 49.5 39.6999 49.5Z" fill="#54595E"/>
        <path d="M7.99995 17.4C10.6509 17.4 12.8 15.251 12.8 12.6C12.8 9.94902 10.6509 7.79999 7.99995 7.79999C5.34898 7.79999 3.19995 9.94902 3.19995 12.6C3.19995 15.251 5.34898 17.4 7.99995 17.4Z" fill="#54595E"/>
        <path d="M13 81.5H42.9L39.6 64.9H16.3L13 81.5Z" fill="#54595E"/>
    </g>
    <defs>
        <clipPath id="clip0">
            <rect width="69.8" height="81.5" fill="white"/>
        </clipPath>
    </defs>
</svg>
