<svg width="79" height="46" viewBox="0 0 79 46" fill="none" xmlns="http://www.w3.org/2000/svg">
    <g clip-path="url(#clip0)">
        <path d="M78 29.9C78.5 29.9 78.8 30.3 78.8 30.7V35.4C78.8 37.3 77.3 38.9 75.4 39V29.8H78V29.9Z" fill="#535B65"/>
        <path d="M56.4084 29.9817L77.9084 29.9817L77.9084 28.5817L56.4084 28.5817L56.4084 29.9817Z" fill="#DB6A61"/>
        <path d="M56.4 5.8C56.4 4.8 57.2 4 58.2 4H69.2C71.8 4 74.3 6 75.3 8.9L78.7 21.1V27.6C78.7 28.1 78.3 28.4 77.9 28.4H56.4V21V5.8Z" fill="#FF7B69"/>
        <path d="M78.6 20.6C78.6 20.6 76.9 20.1 76.7 19C76.3 17.5 74.3 10 74.3 9.5C74.3 9 75.3 9 75.3 9L78.6 20.6Z" fill="white"/>
        <path d="M-0.000854492 32.9702L56.4991 32.9702L56.4991 28.5702L-0.000854492 28.5702L-0.000854492 32.9702Z" fill="#54595E"/>
        <path d="M63.4 17.4C63.4 17.8 63.7 18.2 64.1 18.2L74 19.5C74.3 19.5 74.5 19.4 74.7 19.2C75 19 75 18.7 75 18.5L72.9 9.6C72.8 9.2 72.4 9 72.1 9H64.3C63.8 9 63.5 9.4 63.5 9.8V17.4H63.4Z" fill="white"/>
        <path d="M75.4 29.9V39.1C75.3 39.1 75.2 39.1 75.1 39.1H71.2C71.2 35.4 68.2 32.4 64.5 32.4C60.8 32.4 57.8 35.4 57.8 39.1H56.7C56.5 39.1 56.4 38.9 56.4 38.8V30H75.4V29.9Z" fill="#54595E"/>
        <path d="M64.6 45.3C68.0242 45.3 70.8 42.5242 70.8 39.1C70.8 35.6758 68.0242 32.9 64.6 32.9C61.1759 32.9 58.4 35.6758 58.4 39.1C58.4 42.5242 61.1759 45.3 64.6 45.3Z" fill="#54595E"/>
        <path d="M64.6 41.9C66.1464 41.9 67.4001 40.6464 67.4001 39.1C67.4001 37.5536 66.1464 36.3 64.6 36.3C63.0537 36.3 61.8 37.5536 61.8 39.1C61.8 40.6464 63.0537 41.9 64.6 41.9Z" fill="white"/>
        <path d="M28.1 45.3C31.5242 45.3 34.3 42.5242 34.3 39.1C34.3 35.6758 31.5242 32.9 28.1 32.9C24.6759 32.9 21.9 35.6758 21.9 39.1C21.9 42.5242 24.6759 45.3 28.1 45.3Z" fill="#54595E"/>
        <path d="M28.1 41.9C29.6464 41.9 30.9 40.6464 30.9 39.1C30.9 37.5536 29.6464 36.3 28.1 36.3C26.5537 36.3 25.3 37.5536 25.3 39.1C25.3 40.6464 26.5537 41.9 28.1 41.9Z" fill="white"/>
        <path d="M28.1 31.7C32.4 31.7 35.5 34.9 35.1 40L34.6 39.5C34.4 34.7 31.3 32.6 28.1 32.6C24.9 32.6 21.8 34.7 21.6 39.5L21.1 40C20.6 35 23.8 31.7 28.1 31.7Z" fill="#54595E"/>
        <path d="M14.1 45.3C17.5242 45.3 20.3 42.5242 20.3 39.1C20.3 35.6758 17.5242 32.9 14.1 32.9C10.6759 32.9 7.90002 35.6758 7.90002 39.1C7.90002 42.5242 10.6759 45.3 14.1 45.3Z" fill="#54595E"/>
        <path d="M14.1 41.9C15.6464 41.9 16.9 40.6464 16.9 39.1C16.9 37.5536 15.6464 36.3 14.1 36.3C12.5537 36.3 11.3 37.5536 11.3 39.1C11.3 40.6464 12.5537 41.9 14.1 41.9Z" fill="white"/>
        <path d="M14.1 31.7C18.4 31.7 21.5 34.9 21.1 40L20.6 39.5C20.4 34.7 17.3 32.6 14.1 32.6C10.9 32.6 7.79997 34.7 7.59997 39.5L7.09997 40C6.59997 35 9.79997 31.7 14.1 31.7Z" fill="#54595E"/>
        <path d="M64.1 22H66.5C66.6 22 66.8001 21.9 66.8001 21.7V21.3C66.8001 21.2 66.7 21 66.5 21H64.1C64 21 63.8 21.1 63.8 21.3V21.7C63.8 21.9 63.9 22 64.1 22Z" fill="white"/>
        <path d="M39.5 39.1H53.2C53.5 39.1 53.8 38.8 53.8 38.5V33.5C53.8 33.2 53.5 32.9 53.2 32.9H39.5C39.2 32.9 38.9 33.2 38.9 33.5V38.5C38.9 38.9 39.2 39.1 39.5 39.1Z" fill="#54595E"/>
        <path d="M51.2695 39.0551L52.2695 39.0551L52.2695 32.9551L51.2695 32.9551L51.2695 39.0551Z" fill="white"/>
        <path d="M41.4 32.9H40.4V39H41.4V32.9Z" fill="white"/>
        <path d="M46.3 35.4C46.7418 35.4 47.1 35.0418 47.1 34.6C47.1 34.1582 46.7418 33.8 46.3 33.8C45.8582 33.8 45.5 34.1582 45.5 34.6C45.5 35.0418 45.8582 35.4 46.3 35.4Z" fill="white"/>
        <path d="M58.2001 4H69.2C70.7 4 72.2001 4.7 73.3001 5.8H56.3C56.4 4.8 57.2001 4 58.2001 4Z" fill="#DB6A61"/>
        <path d="M0 28.5H49V10.4H4.7L0 28.5Z" fill="#1780C2"/>
        <path d="M51 2.39999H55.7L48.9 28.5H44.2L51 2.39999Z" fill="#1780C2"/>
        <path d="M4.69995 10.4H50V6.5H5.69995L4.69995 10.4Z" fill="#1780C2"/>
        <path d="M2.59998 28.5H47.9V27.3H3.59998L2.59998 28.5Z" fill="#1780C2"/>
        <path d="M37.7999 28.5H33.2L37.9 10.4H42.5L37.7999 28.5Z" fill="#1780C2"/>
        <path d="M26.8 28.5H22.1L26.8 10.4H31.5L26.8 28.5Z" fill="#1780C2"/>
        <path d="M15.7 28.5H11.1L15.8 10.4H20.4L15.7 28.5Z" fill="#1780C2"/>
        <path d="M4.7 28.5H0L4.7 10.4H9.4L4.7 28.5Z" fill="#1780C2"/>
        <path d="M64.3 1.2L51.6 0L51 2.4H64.9L64.3 1.2Z" fill="#1780C2"/>
    </g>
    <defs>
        <clipPath id="clip0">
            <rect width="78.8" height="45.3" fill="white"/>
        </clipPath>
    </defs>
</svg>
