<svg width="84" height="78" viewBox="0 0 84 78" fill="none" xmlns="http://www.w3.org/2000/svg">
    <g clip-path="url(#clip0)">
        <path d="M78.1 58.3C78.1 58.3 77.5 59.1 77.4 59.9C77.3 60.5 77.6 61.2 78.3 61.4C78.9 61.6 79.6 61.4 79.9 61C80.2 60.5 80 60 80 59.8C80 59.6 80 59.5 80 59.4C80 59.3 79.8 59.2 79.8 59.4C79.8 59.6 79.8 60.1 79.6 60.4C79.4 60.7 78.8 60.7 78.7 60.3C78.6 59.9 79 59.2 79 59.2L78.1 58.3Z" fill="#54595E"/>
        <path d="M79.8 53.7H78.6H77.4L76.6 54.5V56.3L78.2 59.1H78.6H78.9L80.5 56.3V54.5L79.8 53.7Z" fill="#FF7B69"/>
        <path d="M33.7001 38.1H26.8V24.9H36.4001V28.1C36.4001 35.3 33.7001 38.1 33.7001 38.1Z" fill="#FF7B69"/>
        <path d="M36.4 28.2V25.9H28.7C28.6 25.9 28.5 26 28.5 26.1V31.9C28.5 32 28.6 32.1 28.7 32.1H29.8C29.9 32.1 30 32.2 30 32.2L31.5 35C31.5 35.1 31.6 35.1 31.7 35.1H35.2C35.9 33.6 36.4 31.3 36.4 28.2Z" fill="white"/>
        <path d="M20 73.8V25H0L6.2 18.2H20V4.20001L23.4 0.200012L26.8 4.10001V18.2H76.1L83.6 25H26.8V73.8H20ZM20.8 73.3H26.4V67.2L20.8 73.3ZM20.5 72.9L26.1 66.8H20.5V72.9ZM20.5 66.3H26L20.4 60.2V66.3H20.5ZM26.3 66V59.9H20.7L26.3 66ZM20.8 59.4H26.4V53.3L20.8 59.4ZM20.5 59L26.1 52.9H20.5V59ZM20.5 52.4H26L20.4 46.3V52.4H20.5ZM26.3 52V45.9H20.7L26.3 52ZM20.8 45.4H26.4V39.3L20.8 45.4ZM20.5 45L26.1 38.9H20.5V45ZM20.5 38.4H26L20.4 32.3V38.4H20.5ZM26.3 38.1V32H20.7L26.3 38.1ZM20.8 31.5H26.4V25.4L20.8 31.5ZM20.5 31.1L26 25H20.4V31.1H20.5ZM76.3 24.5H82.4L76.3 18.9V24.5ZM69.7 24.5H75.8V18.9L69.7 24.5ZM62.3 24.5H68.4L62.3 18.9V24.5ZM55.7 24.5H61.8V18.9L55.7 24.5ZM48.4 24.5H54.5L48.4 18.9V24.5ZM41.8 24.5H47.9V18.9L41.8 24.5ZM34.5 24.5H40.6L34.5 18.9V24.5ZM27.9 24.5H34V18.9L27.9 24.5ZM13.9 24.5H20L20.1 24.3V19L13.9 24.5ZM6.6 24.5H12.7L6.6 18.9V24.5ZM1.1 24.5H6.1V19L1.1 24.5ZM20.5 24.5H26.6L20.5 18.9V24.5ZM54.9 24.2V18.6H48.8L54.9 24.2ZM27 24.2V18.6H20.9L27 24.2ZM69.3 24.2L75.4 18.6H69.3V24.2ZM55.4 24.2L61.5 18.6H55.4V24.2ZM41.4 24.2L47.5 18.6H41.4V24.2ZM27.5 24.2L33.6 18.6H27.5V24.2ZM13.5 24.2L19.6 18.6H13.5V24.2ZM13.1 24.2V18.6H6.9L13.1 24.2ZM41 24.2V18.6H34.9L41 24.2ZM68.8 24.2V18.6H62.7L68.8 24.2ZM20.8 18.1H26.4V12L20.8 18.1ZM20.5 17.8L26.1 11.7H20.5V17.8ZM20.5 11.2H26L20.4 5.10001V11.2H20.5ZM26.3 10.8V4.70001H20.7L26.3 10.8ZM20.6 4.20001H26.4L23.4 1.00001L20.6 4.20001Z" fill="#1780C2"/>
        <path d="M77.3 53.8L76.2 24.9H76.6L77.6 53.8H77.3Z" fill="#54595E"/>
        <path d="M79.8 53.8H79.5L80.6 24.9H80.9L79.8 53.8Z" fill="#54595E"/>
        <path d="M76.1 18.3L23.4 0.4L6.39998 18.3L6.09998 18.1L23.4 0H23.5L76.2 18L76.1 18.3Z" fill="#54595E"/>
        <path d="M81.9 24.5H75.1V26.3H81.9V24.5Z" fill="#FF7B69"/>
        <path d="M31.6 73.8H14.5V77.1H31.6V73.8Z" fill="#FF7B69"/>
    </g>
    <defs>
        <clipPath id="clip0">
            <rect width="83.7" height="77.1" fill="white"/>
        </clipPath>
    </defs>
</svg>
