<svg width="44" height="42" viewBox="0 0 44 42" fill="none" xmlns="http://www.w3.org/2000/svg">
    <path d="M38.6562 36.7731C38.1951 37.6953 37.196 39.2324 34.9673 39.2324H11.2202" stroke="#1780C2" stroke-width="2" stroke-miterlimit="10"/>
    <path d="M11.5277 17.176C13.7564 16.4844 22.2869 13.3335 22.2869 3.4965C22.2869 3.4965 22.5175 1.03725 25.2073 1.03725C25.2073 1.03725 28.2045 0.422441 28.5887 4.18816C28.5887 4.18816 29.3572 10.7974 27.2054 15.1011H40.1164C40.1164 15.1011 41.4229 14.8705 42.0377 16.5612" stroke="#1780C2" stroke-width="2" stroke-miterlimit="10"/>
    <path d="M0.614811 16.4844H7.07033V41H0" stroke="#1780C2" stroke-width="2" stroke-miterlimit="10"/>
    <path d="M37.6572 21.4029H38.8868" stroke="#1780C2" stroke-width="2" stroke-miterlimit="10" stroke-linecap="round"/>
    <path d="M42.1915 18.6363C41.9609 19.8659 41.0387 21.4029 38.7332 21.3261" stroke="#1780C2" stroke-width="2" stroke-miterlimit="10"/>
    <path d="M36.9656 27.3973H38.1183" stroke="#1780C2" stroke-width="2" stroke-miterlimit="10" stroke-linecap="round"/>
    <path d="M41.4228 24.7075C41.1922 25.9371 40.27 27.4741 37.9645 27.3973" stroke="#1780C2" stroke-width="2" stroke-miterlimit="10"/>
    <path d="M35.5052 33.4686H36.658" stroke="#1780C2" stroke-width="2" stroke-miterlimit="10" stroke-linecap="round"/>
    <path d="M39.9627 30.7787C39.7322 32.0084 38.8099 33.5454 36.5044 33.4685" stroke="#1780C2" stroke-width="2" stroke-miterlimit="10"/>
</svg>
