<svg width="33" height="42" viewBox="0 0 33 42" fill="none" xmlns="http://www.w3.org/2000/svg">
    <path d="M12.6632 16.0459C11.5025 14.4748 10.8231 12.5357 10.8231 10.4409C10.8231 7.77989 11.9271 5.37367 13.6964 3.66101" stroke="#1780C2" stroke-width="2" stroke-miterlimit="10" stroke-linecap="round" stroke-linejoin="round"/>
    <path d="M16.343 1.84925C17.532 1.29724 18.8625 1 20.2637 1C25.4866 1 29.7187 5.23211 29.7187 10.455C29.7187 12.6772 28.9544 14.7296 27.6664 16.3432" stroke="#1780C2" stroke-width="2" stroke-miterlimit="10" stroke-linecap="round" stroke-linejoin="round"/>
    <path d="M23.5051 5.75574L17.0366 15.14" stroke="#1780C2" stroke-width="2" stroke-miterlimit="10" stroke-linecap="round"/>
    <path d="M17.1219 8.86982C18.1225 8.86982 18.9337 8.05867 18.9337 7.05808C18.9337 6.05748 18.1225 5.24634 17.1219 5.24634C16.1213 5.24634 15.3102 6.05748 15.3102 7.05808C15.3102 8.05867 16.1213 8.86982 17.1219 8.86982Z" stroke="#1780C2" stroke-width="2" stroke-miterlimit="10" stroke-linecap="round"/>
    <path d="M25.2321 13.8379C25.2321 14.8428 24.4253 15.6496 23.4204 15.6496C22.4154 15.6496 21.6086 14.8428 21.6086 13.8379C21.6086 12.8329 22.4154 12.0261 23.4204 12.0261C24.4253 12.0261 25.2321 12.8471 25.2321 13.8379Z" stroke="#1780C2" stroke-width="2" stroke-miterlimit="10" stroke-linecap="round"/>
    <path d="M29.0395 34.5597V38.2114C29.0395 39.7542 27.7798 40.9998 26.2511 40.9998H3.78838C2.24557 40.9998 1 39.7401 1 38.2114V17.0226" stroke="#1780C2" stroke-width="2" stroke-miterlimit="10" stroke-linejoin="round"/>
    <path d="M19.075 34.4323C17.5322 34.4323 16.2866 33.1726 16.2866 31.6439V28.1054C16.2866 26.5626 17.5463 25.317 19.075 25.317H31.4033V34.4465H19.075V34.4323Z" stroke="#1780C2" stroke-width="2" stroke-miterlimit="10" stroke-linecap="round" stroke-linejoin="round"/>
    <path d="M9.42176 15.239H2.64189C1.72186 15.239 1 16.06 1 17.0224C1 17.9849 1.72186 18.7351 2.64189 18.7351H26.2511C27.7939 18.7351 29.0395 20.009 29.0395 21.5376V23.1229" stroke="#1780C2" stroke-width="2" stroke-miterlimit="10" stroke-linejoin="round"/>
</svg>
