<svg width="54" height="44" viewBox="0 0 54 44" fill="none" xmlns="http://www.w3.org/2000/svg">
    <path d="M26.493 20.0282L16.7747 25.0282V36.3662L26.493 42L36.3521 36.3662V25.0282L26.493 20.0282Z" stroke="#1780C2" stroke-width="2" stroke-miterlimit="10"/>
    <path d="M32.831 27.0705L26.5634 30.5212" stroke="#1780C2" stroke-width="2" stroke-miterlimit="10" stroke-linecap="round"/>
    <path d="M20.2958 27.0705L26.493 30.5212" stroke="#1780C2" stroke-width="2" stroke-miterlimit="10" stroke-linecap="round"/>
    <path d="M26.5634 30.5916V37.8451" stroke="#1780C2" stroke-width="2" stroke-miterlimit="10" stroke-linecap="round"/>
    <path d="M36.3521 29.4649L42.3381 32.9156L52.1268 27.2818V15.9437L42.3381 10.9437L32.5493 15.9437V23.0564" stroke="#1780C2" stroke-width="2" stroke-miterlimit="10"/>
    <path d="M48.6057 17.9155L42.3381 21.3662" stroke="#1780C2" stroke-width="2" stroke-miterlimit="10" stroke-linecap="round"/>
    <path d="M36.0704 17.9155L42.338 21.3662" stroke="#1780C2" stroke-width="2" stroke-miterlimit="10" stroke-linecap="round"/>
    <path d="M42.3381 21.5071V28.7606" stroke="#1780C2" stroke-width="2" stroke-miterlimit="10" stroke-linecap="round"/>
    <path d="M20.5775 22.9859V16.1549L10.7183 11.0845L1 16.1549V27.4929L10.7183 33.1267L16.4225 29.8873" stroke="#1780C2" stroke-width="2" stroke-miterlimit="10"/>
    <path d="M17.0563 18.1267L10.7887 21.5774" stroke="#1780C2" stroke-width="2" stroke-miterlimit="10" stroke-linecap="round"/>
    <path d="M4.45068 18.1267L10.7183 21.5774" stroke="#1780C2" stroke-width="2" stroke-miterlimit="10" stroke-linecap="round"/>
    <path d="M10.7887 21.7183V28.9718" stroke="#1780C2" stroke-width="2" stroke-miterlimit="10" stroke-linecap="round"/>
    <path d="M36.3521 13.831V7.07042L26.493 2L16.7747 7.07042V14.1127" stroke="#1780C2" stroke-width="2" stroke-miterlimit="10"/>
    <path d="M32.831 9.04224L26.5634 12.4929" stroke="#1780C2" stroke-width="2" stroke-miterlimit="10" stroke-linecap="round"/>
    <path d="M20.2958 9.04224L26.5634 12.4929" stroke="#1780C2" stroke-width="2" stroke-miterlimit="10" stroke-linecap="round"/>
    <path d="M26.5634 12.5634V17.3521" stroke="#1780C2" stroke-width="2" stroke-miterlimit="10" stroke-linecap="round"/>
</svg>
