<svg width="51" height="42" viewBox="0 0 51 42" fill="none" xmlns="http://www.w3.org/2000/svg">
    <path d="M19.3071 22.7219L13.8895 27.3245" stroke="white" stroke-width="2" stroke-miterlimit="10"/>
    <path d="M21.1129 8.63251V18.7484" stroke="white" stroke-width="2" stroke-miterlimit="10"/>
    <path d="M23.3827 21.0662C23.3827 22.3411 22.3389 23.3841 21.0632 23.3841C19.7875 23.3841 18.7438 22.3411 18.7438 21.0662C18.7438 19.7914 19.7875 18.7484 21.0632 18.7484C22.3555 18.7484 23.3827 19.7914 23.3827 21.0662Z" stroke="white" stroke-width="2" stroke-miterlimit="10" stroke-linecap="round"/>
    <path d="M22.3389 40.9668C21.9247 40.9999 21.494 40.9999 21.0632 40.9999C18.2136 40.9999 15.4468 40.4039 12.8623 39.2449" stroke="white" stroke-width="2" stroke-miterlimit="10" stroke-linejoin="round"/>
    <path d="M30.5896 38.5994C28.8169 39.5596 26.9116 40.255 24.9401 40.6358" stroke="white" stroke-width="2" stroke-miterlimit="10" stroke-linejoin="round"/>
    <path d="M35.8746 34.4437C34.8639 35.5529 33.7374 36.5463 32.5114 37.4072" stroke="white" stroke-width="2" stroke-miterlimit="10" stroke-linejoin="round"/>
    <path d="M38.8403 23.1854C38.8403 23.1854 35.8913 27.8377 33.3067 27.8377C30.7388 27.8377 28.6512 25.7516 28.6512 23.1854C28.6512 20.6192 30.7388 18.5331 33.3067 18.5331C35.8913 18.5165 38.8403 23.1854 38.8403 23.1854Z" stroke="white" stroke-width="2" stroke-miterlimit="10" stroke-linejoin="round"/>
    <path d="M38.8402 23.1853C38.8402 23.1853 41.7892 18.533 44.3738 18.533C46.9417 18.533 49.0292 20.6191 49.0292 23.1853C49.0292 25.7516 46.9417 27.8377 44.3738 27.8377C41.8058 27.8377 38.8402 23.1853 38.8402 23.1853Z" stroke="white" stroke-width="2" stroke-miterlimit="10" stroke-linejoin="round"/>
    <path d="M10.7748 38.1689C9.38318 37.3411 8.05777 36.3146 6.86491 35.1225C-0.95497 27.3245 -0.95497 14.6589 6.86491 6.86093C14.6682 -0.953642 27.3424 -0.953642 35.1457 6.86093L35.6759 7.39073L37.9788 5.0894L39.8343 14.4106L30.4902 12.5728L32.8097 10.2384L32.6109 10.0397C32.4949 9.92384 32.3955 9.80795 32.2795 9.69205C26.0336 3.45033 15.9274 3.45033 9.68139 9.69205C3.43543 15.9338 3.43543 26.0331 9.68139 32.2748C15.9274 38.5166 26.0336 38.5166 32.2795 32.2748" stroke="white" stroke-width="2" stroke-miterlimit="10" stroke-linejoin="round"/>
</svg>
