<svg width="38" height="42" viewBox="0 0 38 42" fill="none" xmlns="http://www.w3.org/2000/svg">
    <path d="M27.6249 13.755C25.4689 14.3014 21.2456 14.1537 15.8852 10.8902C10.51 7.64147 7.02501 3.56579 8.08823 1.80852C9.06284 0.213693 13.4486 1.05541 18.2627 3.65439" stroke="#1780C2" stroke-width="2" stroke-miterlimit="10" stroke-linecap="round"/>
    <path d="M26.2367 11.7467C27.359 10.6244 29.1606 10.6244 30.2828 11.7467C31.4051 12.869 31.4051 14.6705 30.2828 15.7928C29.2639 16.8117 27.6691 16.9003 26.5468 16.0586" stroke="#1780C2" stroke-width="2" stroke-miterlimit="10" stroke-linecap="round" stroke-linejoin="round"/>
    <path d="M15.3239 10.6687L1 24.9779L17.0221 41L36.485 21.5372L36.3225 11.8648L30.15 5.67745L20.4628 5.51501L17.3765 8.61607" stroke="#1780C2" stroke-width="2" stroke-miterlimit="10" stroke-linejoin="round"/>
    <path d="M24.5385 23.191L10.4951 25.7753" stroke="#1780C2" stroke-width="2" stroke-miterlimit="10" stroke-linecap="round"/>
    <path d="M19.0452 20.6364C18.2625 21.4191 17.0073 21.4191 16.2247 20.6364C15.442 19.8538 15.442 18.5986 16.2247 17.8159C17.0073 17.0333 18.2625 17.0333 19.0452 17.8159C19.8278 18.5986 19.8278 19.8685 19.0452 20.6364Z" stroke="#1780C2" stroke-width="2" stroke-miterlimit="10" stroke-linecap="round"/>
    <path d="M18.809 31.1357C18.0263 31.9183 16.7711 31.9183 15.9885 31.1357C15.2058 30.353 15.2058 29.0978 15.9885 28.3152C16.7711 27.5325 18.0263 27.5325 18.809 28.3152C19.5916 29.0978 19.5916 30.353 18.809 31.1357Z" stroke="#1780C2" stroke-width="2" stroke-miterlimit="10" stroke-linecap="round"/>
</svg>
