<svg width="44" height="42" viewBox="0 0 44 42" fill="none" xmlns="http://www.w3.org/2000/svg">
    <path d="M30.8423 11.1213V3.77296C30.8423 2.24783 29.6018 1 28.0855 1H8.65012L1 7.65511V38.227C1 39.7522 2.24056 41 3.7568 41H28.0855C29.6018 41 30.8423 39.7522 30.8423 38.227V36.4939" stroke="white" stroke-width="2" stroke-miterlimit="10"/>
    <path d="M11.1313 1.48517V10.012H5.96228" stroke="white" stroke-width="2" stroke-miterlimit="10"/>
    <path d="M33.0479 33.4437C38.3007 33.4437 42.5589 29.1605 42.5589 23.877C42.5589 18.5934 38.3007 14.3102 33.0479 14.3102C27.7952 14.3102 23.537 18.5934 23.537 23.877C23.537 29.1605 27.7952 33.4437 33.0479 33.4437Z" stroke="white" stroke-width="2" stroke-miterlimit="10"/>
    <path d="M28.7059 23.4609L32.5655 26.6498L37.5966 20.2027" stroke="white" stroke-width="2" stroke-miterlimit="10"/>
    <path d="M7.68534 20.7573H7.06506V21.3812H7.68534V20.7573Z" fill="#394553" stroke="white" stroke-width="2" stroke-miterlimit="10"/>
    <path d="M11.476 21.0346H20.918" stroke="white" stroke-width="2" stroke-miterlimit="10"/>
    <path d="M7.68534 26.3033H7.06506V26.9272H7.68534V26.3033Z" fill="#394553" stroke="white" stroke-width="2" stroke-miterlimit="10"/>
    <path d="M11.476 26.5805H20.9869" stroke="white" stroke-width="2" stroke-miterlimit="10"/>
    <path d="M7.68534 31.8492H7.06506V32.4731H7.68534V31.8492Z" fill="#394553" stroke="white" stroke-width="2" stroke-miterlimit="10"/>
    <path d="M11.476 32.1958H23.5369" stroke="white" stroke-width="2" stroke-miterlimit="10"/>
</svg>
