<svg width="46" height="42" viewBox="0 0 46 42" fill="none" xmlns="http://www.w3.org/2000/svg">
    <path d="M8.16834 35.7671C3.22218 38.5628 1 35.0503 1 35.0503C4.51249 31.9679 4.15407 30.1041 4.22575 27.8103C4.36912 25.373 4.08238 24.7996 3.36555 21.3588C0.713266 0.570579 24.1537 1.00068 24.1537 1.00068H24.8706C24.8706 1.00068 40.3542 1.14405 41.7878 14.6205L41.9312 15.7675C42.2896 18.4197 42.3613 18.9215 42.433 21.2871C42.5764 24.2261 41.9312 25.4447 41.7162 27.7386C41.5011 30.1041 41.3577 31.9679 44.7985 34.9786C44.7985 34.9786 42.5764 38.4911 37.6302 35.6954" stroke="white" stroke-width="2" stroke-miterlimit="10" stroke-linecap="round" stroke-linejoin="round"/>
    <path d="M25.8024 33.76C36.985 33.76 37.7735 24.5845 37.7735 24.5845C37.7735 24.5845 37.8452 22.6491 36.9133 21.6455" stroke="white" stroke-width="2" stroke-miterlimit="10" stroke-linecap="round" stroke-linejoin="round"/>
    <path d="M23.0785 35.0503C24.1078 35.0503 24.9423 34.5047 24.9423 33.8317C24.9423 33.1586 24.1078 32.613 23.0785 32.613C22.0492 32.613 21.2147 33.1586 21.2147 33.8317C21.2147 34.5047 22.0492 35.0503 23.0785 35.0503Z" fill="white" stroke="white" stroke-width="2" stroke-miterlimit="10"/>
    <path d="M10.5339 18.8499C10.5339 18.8499 20.6413 21.0004 24.5839 10.893C25.1573 9.45936 25.229 9.31599 26.6627 10.7497C30.0318 14.2621 35.5514 15.8392 35.5514 15.8392L35.9098 15.9825C35.9098 15.9825 37.1284 20.5703 36.4116 25.3014C36.4116 25.3014 33.9027 41 23.0068 41H22.7201C11.8959 41 9.96045 25.3014 9.96045 25.3014" stroke="white" stroke-width="2" stroke-miterlimit="10" stroke-linecap="round" stroke-linejoin="round"/>
    <path d="M17.6306 23.796C17.9473 23.796 18.2041 23.5393 18.2041 23.2226C18.2041 22.9059 17.9473 22.6491 17.6306 22.6491C17.3139 22.6491 17.0571 22.9059 17.0571 23.2226C17.0571 23.5393 17.3139 23.796 17.6306 23.796Z" fill="white" stroke="white" stroke-width="2" stroke-miterlimit="10"/>
    <path d="M28.5265 23.796C28.8432 23.796 29.0999 23.5393 29.0999 23.2226C29.0999 22.9059 28.8432 22.6491 28.5265 22.6491C28.2098 22.6491 27.953 22.9059 27.953 23.2226C27.953 23.5393 28.2098 23.796 28.5265 23.796Z" fill="white" stroke="white" stroke-width="2" stroke-miterlimit="10"/>
</svg>
