<svg width="25" height="25" viewBox="0 0 25 25" fill="none" xmlns="http://www.w3.org/2000/svg">
    <path d="M17.3469 2.04082C18.8354 2.04082 20.2629 2.6321 21.3154 3.6846C22.3679 4.7371 22.9592 6.1646 22.9592 7.65306V17.3469C22.9592 18.8354 22.3679 20.2629 21.3154 21.3154C20.2629 22.3679 18.8354 22.9592 17.3469 22.9592H7.65306C6.1646 22.9592 4.7371 22.3679 3.6846 21.3154C2.6321 20.2629 2.04082 18.8354 2.04082 17.3469V7.65306C2.04082 6.1646 2.6321 4.7371 3.6846 3.6846C4.7371 2.6321 6.1646 2.04082 7.65306 2.04082H17.3469ZM17.3469 0H7.65306C5.62521 0.00605635 3.68214 0.814303 2.24822 2.24822C0.814303 3.68214 0.00605635 5.62521 0 7.65306V17.3469C0.00605635 19.3748 0.814303 21.3179 2.24822 22.7518C3.68214 24.1857 5.62521 24.9939 7.65306 25H17.3469C19.3748 24.9939 21.3179 24.1857 22.7518 22.7518C24.1857 21.3179 24.9939 19.3748 25 17.3469V7.65306C24.9939 5.62521 24.1857 3.68214 22.7518 2.24822C21.3179 0.814303 19.3748 0.00605635 17.3469 0Z" fill="#1780C2"/>
    <path d="M19.1683 4.33673C18.8792 4.33673 18.5966 4.42246 18.3562 4.58308C18.1158 4.7437 17.9284 4.97199 17.8178 5.23908C17.7072 5.50618 17.6782 5.80009 17.7346 6.08364C17.791 6.36718 17.9302 6.62764 18.1347 6.83207C18.3391 7.0365 18.5996 7.17571 18.8831 7.23211C19.1667 7.28851 19.4606 7.25957 19.7277 7.14893C19.9948 7.0383 20.223 6.85094 20.3837 6.61056C20.5443 6.37018 20.63 6.08757 20.63 5.79847C20.63 5.60651 20.5922 5.41643 20.5187 5.23908C20.4453 5.06174 20.3376 4.9006 20.2019 4.76486C20.0661 4.62913 19.905 4.52146 19.7277 4.448C19.5503 4.37454 19.3602 4.33673 19.1683 4.33673Z" fill="#1780C2"/>
    <path d="M12.5688 8.02807C13.461 8.02757 14.3334 8.29172 15.0755 8.78711C15.8176 9.28251 16.396 9.98688 16.7377 10.8111C17.0794 11.6354 17.1689 12.5424 16.995 13.4175C16.8211 14.2927 16.3914 15.0966 15.7605 15.7275C15.1296 16.3584 14.3257 16.788 13.4506 16.9619C12.5755 17.1359 11.6684 17.0464 10.8442 16.7047C10.0199 16.363 9.31557 15.7845 8.82018 15.0424C8.32478 14.3003 8.06063 13.428 8.06113 12.5357C8.06315 11.3408 8.53872 10.1955 9.38363 9.35057C10.2285 8.50566 11.3739 8.0301 12.5688 8.02807ZM12.5688 5.98726C11.2736 5.98978 10.0081 6.37619 8.93245 7.09767C7.85676 7.81915 7.01909 8.84331 6.52529 10.0407C6.03149 11.2381 5.90373 12.5551 6.15814 13.8251C6.41256 15.0951 7.03774 16.2611 7.95468 17.1759C8.87162 18.0907 10.0392 18.7132 11.3097 18.9646C12.5803 19.2161 13.897 19.0853 15.0932 18.5887C16.2895 18.0921 17.3117 17.252 18.0306 16.1746C18.7496 15.0973 19.1331 13.831 19.1326 12.5357C19.1322 11.6746 18.9621 10.8219 18.6319 10.0266C18.3018 9.23125 17.818 8.5088 17.2084 7.90059C16.5988 7.29237 15.8752 6.81032 15.0791 6.48201C14.283 6.1537 13.4299 5.98558 12.5688 5.98726Z" fill="#1780C2"/>
</svg>
