<svg width="16" height="16" viewBox="0 0 16 16" fill="none" xmlns="http://www.w3.org/2000/svg">
    <path fill-rule="evenodd" clip-rule="evenodd" d="M15.777 13.894C15.426 14.319 14.799 15.072 14.546 15.324C14.074 15.797 13.454 15.999 12.472 15.999C11.326 15.999 7.067 13.899 4.633 11.358C2.102 8.932 0 4.674 0 3.529C0 2.547 0.202 1.927 0.676 1.453C0.909 1.22 1.582 0.654999 2.106 0.222999C2.31 0.053999 2.568 -0.025001 2.832 0.00599898C3.096 0.034999 3.331 0.166999 3.493 0.377999L5.877 3.461C6.282 3.983 6.329 4.692 5.998 5.265L5.671 5.834C5.471 6.18 5.498 6.607 5.74 6.921C6.085 7.37 6.633 8.041 7.282 8.691C7.937 9.346 8.621 9.904 9.08 10.257C9.396 10.502 9.823 10.527 10.169 10.328L10.736 10.001C11.308 9.67 12.015 9.718 12.54 10.122L15.623 12.506C15.834 12.669 15.966 12.905 15.995 13.168C16.023 13.432 15.947 13.689 15.777 13.894ZM15.232 13.012L12.149 10.63C11.832 10.385 11.403 10.355 11.056 10.555L10.489 10.883C9.916 11.215 9.209 11.166 8.689 10.764C8.216 10.4 7.509 9.822 6.83 9.143C6.155 8.469 5.589 7.774 5.232 7.311C4.832 6.79 4.787 6.084 5.117 5.513L5.444 4.945C5.645 4.598 5.616 4.169 5.371 3.852L2.987 0.768999C2.931 0.696999 2.851 0.651999 2.761 0.641999C2.749 0.640999 2.736 0.639999 2.724 0.639999C2.647 0.639999 2.574 0.665999 2.513 0.715999C1.789 1.315 1.297 1.737 1.128 1.906C0.874 2.16 0.64 2.531 0.64 3.529C0.64 4.408 2.611 8.534 5.085 10.905C7.465 13.389 11.593 15.36 12.472 15.36C13.47 15.36 13.842 15.125 14.094 14.872C14.265 14.701 14.698 14.196 15.284 13.487C15.342 13.416 15.369 13.329 15.358 13.239C15.348 13.149 15.303 13.068 15.232 13.012ZM15.15 5.088C15.114 5.101 15.077 5.107 15.041 5.107C14.91 5.107 14.787 5.027 14.74 4.897C14.122 3.203 12.798 1.879 11.104 1.26C10.938 1.199 10.852 1.016 10.913 0.849999C10.973 0.684999 11.159 0.598999 11.323 0.658999C13.195 1.341 14.659 2.806 15.341 4.677C15.402 4.843 15.316 5.027 15.15 5.088ZM12.936 5.556C12.996 5.722 12.91 5.905 12.743 5.965C12.707 5.978 12.671 5.984 12.634 5.984C12.503 5.984 12.381 5.904 12.333 5.772C11.983 4.804 11.197 4.017 10.228 3.667C10.061 3.607 9.975 3.424 10.035 3.257C10.096 3.091 10.28 3.005 10.445 3.065C11.591 3.48 12.522 4.411 12.936 5.556ZM10.53 6.433C10.589 6.599 10.503 6.782 10.336 6.841C10.3 6.855 10.264 6.861 10.228 6.861C10.097 6.861 9.974 6.779 9.927 6.648C9.831 6.379 9.621 6.17 9.353 6.074C9.186 6.014 9.099 5.831 9.159 5.665C9.219 5.499 9.402 5.411 9.568 5.471C10.018 5.632 10.369 5.982 10.53 6.433Z" fill="#54595E"/>
</svg>
