<svg width="13" height="17" viewBox="0 0 13 17" fill="none" xmlns="http://www.w3.org/2000/svg">
    <path fill-rule="evenodd" clip-rule="evenodd" d="M11.591 12.152L8.891 10.798C8.636 10.67 8.478 10.414 8.478 10.128V9.17C8.543 9.091 8.611 9 8.681 8.9C9.032 8.405 9.312 7.853 9.516 7.258C9.915 7.074 10.174 6.679 10.174 6.233V5.099C10.174 4.826 10.072 4.562 9.891 4.356V2.849C9.907 2.693 9.969 1.765 9.3 1C8.72 0.336 7.778 0 6.5 0C5.222 0 4.28 0.336 3.7 1C3.031 1.765 3.093 2.693 3.109 2.849V4.356C2.928 4.562 2.826 4.826 2.826 5.099V6.233C2.826 6.578 2.982 6.899 3.249 7.114C3.508 8.141 4.05 8.916 4.239 9.164V10.102C4.239 10.376 4.09 10.628 3.85 10.759L1.329 12.138C0.509 12.586 0 13.446 0 14.382V15.3C0 16.644 4.252 17 6.5 17C8.748 17 13 16.644 13 15.3V14.437C13 13.463 12.46 12.587 11.591 12.152ZM12.435 15.3C12.435 15.684 10.34 16.433 6.5 16.433C2.66 16.433 0.565 15.684 0.565 15.3V14.382C0.565 13.654 0.961 12.984 1.599 12.636L4.12 11.257C4.542 11.026 4.804 10.583 4.804 10.102V8.963L4.738 8.885C4.732 8.876 4.039 8.036 3.775 6.883L3.749 6.77L3.653 6.708C3.489 6.602 3.391 6.424 3.391 6.233V5.099C3.391 4.941 3.458 4.793 3.581 4.682L3.674 4.597V2.833L3.671 2.796C3.67 2.788 3.574 2.003 4.125 1.373C4.593 0.838 5.392 0.566 6.5 0.566C7.604 0.566 8.401 0.836 8.87 1.367C9.42 1.991 9.329 2.789 9.329 2.796L9.326 4.597L9.419 4.682C9.541 4.793 9.609 4.941 9.609 5.099V6.233C9.609 6.48 9.447 6.696 9.207 6.771L9.066 6.814L9.021 6.955C8.832 7.544 8.562 8.089 8.22 8.573C8.136 8.693 8.054 8.798 7.983 8.879L7.913 8.96V10.128C7.913 10.63 8.191 11.08 8.638 11.304L11.338 12.658C12.015 12.997 12.435 13.679 12.435 14.437V15.3Z" fill="#54595E"/>
</svg>
