<svg width="25" height="25" viewBox="0 0 25 25" fill="none" xmlns="http://www.w3.org/2000/svg">
    <path fill-rule="evenodd" clip-rule="evenodd" d="M9.00391 6.34766C8.76953 5.76172 8.57422 5.74219 8.20312 5.72266C8.08594 5.72266 7.92969 5.70312 7.79297 5.70312C7.32422 5.70312 6.81641 5.83984 6.52344 6.15234C6.15234 6.52344 5.25391 7.40234 5.25391 9.19922C5.25391 10.9961 6.5625 12.7344 6.73828 12.9688C6.91406 13.2031 9.29688 16.9531 12.9688 18.457C15.8398 19.6484 16.6992 19.5312 17.3438 19.3945C18.3008 19.1797 19.4922 18.4766 19.8047 17.6367C20.0977 16.7773 20.0977 16.0547 20.0195 15.8984C19.9219 15.7422 19.6875 15.6641 19.3164 15.4687C18.9453 15.293 17.168 14.3945 16.8164 14.2773C16.4844 14.1602 16.1719 14.1992 15.918 14.5508C15.5664 15.0391 15.2148 15.5469 14.9414 15.8398C14.7266 16.0742 14.3555 16.1133 14.0625 15.9766C13.6523 15.8008 12.5195 15.4102 11.1328 14.1602C10.0586 13.2031 9.31641 11.9922 9.10156 11.6406C8.88672 11.2695 9.08203 11.0547 9.25781 10.8594C9.43359 10.625 9.60938 10.4688 9.80469 10.2539C9.98047 10.0391 10.0977 9.92188 10.2148 9.6875C10.332 9.45312 10.2539 9.19922 10.1562 9.00391C10.0391 8.86719 9.31641 7.07031 9.00391 6.34766ZM12.5 0C5.60547 0 0 5.60547 0 12.5C0 15.2344 0.878906 17.7734 2.38281 19.8242L0.820312 24.4727L5.625 22.9297C7.59766 24.2383 9.96094 25 12.5 25C19.3945 25 25 19.3945 25 12.5C25 5.60547 19.3945 0 12.5 0Z" fill="#1780C2"/>
</svg>
